<svg width="56" height="56" viewBox="0 0 56 56" fill="none" xmlns="http://www.w3.org/2000/svg">
<rect width="56" height="56" rx="28" fill="#0C8F61"/>
<path d="M16.5 24.5C16.5 23.3954 17.3954 22.5 18.5 22.5H20.5L28.5 14.5C29.3284 13.6716 30.6716 13.6716 31.5 14.5L33.5 16.5C34.3284 17.3284 34.3284 18.6716 33.5 19.5L25.5 27.5V29.5C25.5 30.6046 24.6046 31.5 23.5 31.5H21.5L19.5 33.5C18.6716 34.3284 17.3284 34.3284 16.5 33.5L14.5 31.5C13.6716 30.6716 13.6716 29.3284 14.5 28.5L16.5 26.5V24.5Z" fill="#FAF9F7"/>
<path d="M35.5 28.5L41.5 34.5C42.3284 35.3284 42.3284 36.6716 41.5 37.5L39.5 39.5C38.6716 40.3284 37.3284 40.3284 36.5 39.5L30.5 33.5L35.5 28.5Z" fill="#FAF9F7"/>
<path d="M30.5 33.5L28.5 35.5L22.5 29.5L24.5 27.5L30.5 33.5Z" fill="#FAF9F7"/>
</svg>
