<svg width="56" height="56" viewBox="0 0 56 56" fill="none" xmlns="http://www.w3.org/2000/svg">
<rect width="56" height="56" rx="28" fill="#212121"/>
<path d="M24.5 17.5C24.5 16.6716 25.1716 16 26 16H30C30.8284 16 31.5 16.6716 31.5 17.5V19H24.5V17.5Z" fill="#FAF9F7"/>
<path d="M23 19H33.5C34.3284 19 35 19.6716 35 20.5V22.5C35 23.3284 34.3284 24 33.5 24H32.5L31 38.5C30.8619 39.8807 29.6716 41 28.25 41H27.75C26.3284 41 25.1381 39.8807 25 38.5L23.5 24H22.5C21.6716 24 21 23.3284 21 22.5V20.5C21 19.6716 21.6716 19 22.5 19H23Z" fill="#FAF9F7"/>
<circle cx="36.5" cy="18" r="1.25" fill="#FAF9F7"/>
<circle cx="39.5" cy="21.5" r="1" fill="#FAF9F7"/>
<circle cx="38" cy="25" r="0.85" fill="#FAF9F7"/>
</svg>
