<svg width="56" height="56" viewBox="0 0 56 56" fill="none" xmlns="http://www.w3.org/2000/svg">
<rect width="56" height="56" rx="28" fill="#E1E9EC"/>
<g clip-path="url(#clip0_1156_5676)">
<path d="M41.131 19.2179C37.9119 19.2179 33.364 19.4769 31.0399 21.7104C30.0337 22.678 29.5312 24.2552 29.6617 26.0405C29.6786 26.2763 29.8417 26.4772 30.076 26.5515C30.3091 26.6247 30.5652 26.5561 30.7246 26.3762C32.0171 24.9138 33.6237 23.7419 35.5033 22.8929C35.6627 22.8197 35.8511 22.8139 36.0227 22.872C36.1737 22.9242 36.292 23.0229 36.3536 23.1496C36.4816 23.4098 36.4406 23.7524 36.0154 23.9452C35.9912 23.9568 35.9695 23.9719 35.9454 23.9823C35.9369 23.9858 35.9272 23.9847 35.92 23.9882C31.2888 26.0812 29.0118 29.7329 27.9778 33.4879C27.224 28.7862 25.632 26.0184 24.1281 24.3192C23.0398 22.9626 21.9695 22.2436 21.3511 21.8371C21.2363 21.7616 20.8897 21.534 20.7459 21.3957C20.5103 21.1693 20.5103 20.8011 20.7459 20.5746C20.9814 20.3492 21.3656 20.3492 21.6277 20.6001C21.6917 20.6547 21.7944 20.7244 21.9248 20.808L22.0323 20.8777C22.9069 21.4538 24.5352 22.5235 25.9799 24.8267C26.1091 25.0323 26.3592 25.1427 26.602 25.0985C26.8484 25.0567 27.0416 24.8744 27.09 24.6386C27.4053 23.0903 27.2639 20.7929 25.8277 19.4119C23.5037 17.1795 18.9558 16.9205 15.7378 16.9205C15.4044 16.9205 15.1338 17.1807 15.1338 17.5012C15.1338 20.5966 15.4031 24.9695 17.726 27.2043C18.6948 28.1357 20.189 28.5539 21.6735 28.5539C22.8851 28.5539 24.0725 28.2623 24.9821 27.7571C26.2226 30.2287 27.2132 33.9211 27.2132 39.5693C27.2132 39.8899 27.4838 40.1501 27.8171 40.1501C28.1505 40.1501 28.4211 39.8899 28.4211 39.5693C28.4211 36.4183 28.9828 32.6364 31.0713 29.5237C31.9084 30.31 33.3495 30.8083 34.9464 30.8547C35.0261 30.8571 35.1046 30.8582 35.1831 30.8582C36.8054 30.8582 38.2392 30.3693 39.1415 29.5004C41.4656 27.2658 41.7337 22.8928 41.7337 19.7974C41.735 19.4769 41.4656 19.2179 41.131 19.2179Z" fill="#212121" stroke="#212121" stroke-width="0.430277"/>
</g>
<defs>
<clipPath id="clip0_1156_5676">
<rect width="28" height="28" fill="white" transform="translate(14.5386 14.5532)"/>
</clipPath>
</defs>
</svg>
