<svg width="56" height="56" viewBox="0 0 56 56" fill="none" xmlns="http://www.w3.org/2000/svg">
<rect width="56" height="56" rx="28" fill="#F4E3B1"/>
<g clip-path="url(#clip0_1156_5729)">
<path d="M44.6105 28.1494C44.6105 37.7224 36.8501 45.4828 27.2772 45.4828C17.7042 45.4828 9.94385 37.7224 9.94385 28.1494C9.94385 18.5765 17.7042 10.8161 27.2772 10.8161C36.8501 10.8161 44.6105 18.5765 44.6105 28.1494Z" fill="#212121"/>
<path d="M27.2773 9.37146C16.9068 9.37146 8.49951 17.7787 8.49951 28.1492C8.49951 38.5197 16.9068 46.927 27.2773 46.927C37.6478 46.927 46.0551 38.5197 46.0551 28.1492C46.0551 17.7787 37.6478 9.37146 27.2773 9.37146ZM35.4283 17.5149L36.3714 15.5831L37.314 17.5149L39.4228 17.8247L37.8971 19.327L38.2571 21.4498L36.3714 20.4503L34.4856 21.4526L34.8457 19.3298L33.32 17.8276L35.4283 17.5149ZM13.0686 31.0819L13.4287 28.96L11.903 27.4577L14.0113 27.1479L14.9544 25.2152L15.8975 27.147L18.0058 27.4568L16.4801 28.959L16.8401 31.0823L14.9544 30.081L13.0686 31.0819ZM20.8299 38.8746L18.9442 37.8761L17.058 38.8784L17.419 36.7556L15.8933 35.2533L18.0015 34.9435L18.9447 33.0117L19.8873 34.9435L21.996 35.2533L20.4703 36.7556L20.8299 38.8746ZM20.4703 20.0889L20.8304 22.2122L18.9447 21.2099L17.0584 22.2122L17.419 20.0889L15.8933 18.5867L18.0015 18.2773L18.9447 16.3455L19.8873 18.2773L21.996 18.5867L20.4703 20.0889ZM29.163 43.4062L27.2773 42.4039L25.3915 43.4062L25.7516 41.2829L24.2259 39.7807L26.3342 39.4708L27.2773 37.5381L28.2204 39.4699L30.3287 39.7797L28.803 41.2819L29.163 43.4062ZM28.803 16.6371L29.163 18.7603L27.2773 17.7581L25.3915 18.7603L25.7516 16.6371L24.2259 15.1348L26.3342 14.825L27.2773 12.8923L28.2204 14.8241L30.3287 15.1339L28.803 16.6371ZM38.2571 39.6398L36.3714 38.6376L34.4856 39.6398L34.8457 37.5165L33.32 36.0143L35.4283 35.7049L36.3714 33.7732L37.314 35.7049L39.4228 36.0143L37.8971 37.5165L38.2571 39.6398ZM39.6002 30.081L37.7144 31.0833L38.0745 28.96L36.5488 27.4577L38.6571 27.1479L39.6002 25.2152L40.5433 27.147L42.6516 27.4568L41.1259 28.959L41.486 31.0823L39.6002 30.081Z" fill="#F4E3B1"/>
</g>
<defs>
<clipPath id="clip0_1156_5729">
<rect width="34.6667" height="34.6667" fill="white" transform="translate(10.667 10.816)"/>
</clipPath>
</defs>
</svg>
