<svg width="56" height="56" viewBox="0 0 56 56" fill="none" xmlns="http://www.w3.org/2000/svg">
<rect width="56" height="56" rx="28" fill="#F4E3B1"/>
<path d="M33.0183 17.387C33.0183 16.2908 32.1269 15.3993 31.0306 15.3993H24.5707C23.4745 15.3993 22.583 16.2908 22.583 17.387V24.3935H33.0183V17.387Z" fill="#212121" stroke="#212121" stroke-width="1.03846"/>
<path d="M21.0947 31.5991C21.0947 32.5582 21.8749 33.3383 22.8339 33.3383H27.0553V37.1149H25.3185C25.0693 37.1149 24.8366 37.2395 24.6984 37.4469L23.2076 39.683C22.9792 40.0255 23.0718 40.4883 23.4143 40.7166C23.7569 40.945 24.2197 40.8525 24.448 40.5099L25.7175 38.6057H27.0553V40.0965C27.0553 40.5081 27.3891 40.8419 27.8007 40.8419C28.2124 40.8419 28.5461 40.5081 28.5461 40.0965V38.6057H29.884L31.1534 40.5099C31.3825 40.8535 31.8455 40.9444 32.1871 40.7166C32.5297 40.4883 32.6222 40.0255 32.3938 39.683L30.903 37.4469C30.7648 37.2395 30.5321 37.1149 30.2829 37.1149H28.5461V33.3383H32.7724C33.7315 33.3383 34.5117 32.5582 34.5117 31.5991V31.3506H21.0948V31.5991H21.0947Z" fill="#212121" stroke="#212121" stroke-width="1.03846"/>
<path d="M39.7741 25.884H15.8225C15.4109 25.884 15.0771 26.2178 15.0771 26.6294V29.114C15.0771 29.5257 15.4109 29.8594 15.8225 29.8594H16.6176V40.0462C16.6176 40.4579 16.9513 40.7916 17.363 40.7916C17.7746 40.7916 18.1084 40.4579 18.1084 40.0462V29.8594H37.4932V40.0462C37.4932 40.4579 37.8269 40.7916 38.2386 40.7916C38.6502 40.7916 38.984 40.4579 38.984 40.0462V29.8594H39.7741C40.1857 29.8594 40.5195 29.5257 40.5195 29.114V26.6294C40.5195 26.2178 40.1857 25.884 39.7741 25.884Z" fill="#212121" stroke="#212121" stroke-width="1.03846"/>
</svg>
