<svg width="56" height="56" viewBox="0 0 56 56" fill="none" xmlns="http://www.w3.org/2000/svg">
<rect width="56" height="56" rx="28" fill="#F4E3B1"/>
<path fill-rule="evenodd" clip-rule="evenodd" d="M29.0302 16.403C28.3569 16.2068 27.6431 16.2068 26.9698 16.403L20.7198 18.2233C19.1099 18.6922 18 20.1922 18 21.899V28.7475C18 32.4513 19.7546 35.927 22.7111 38.0798L25.8204 40.3438C27.1242 41.2932 28.8758 41.2932 30.1796 40.3438L33.2889 38.0798C36.2454 35.927 38 32.4513 38 28.7475V21.899C38 20.1922 36.8901 18.6922 35.2802 18.2233L29.0302 16.403ZM32.6049 24.1441C33.1086 24.6254 33.1341 25.4318 32.6619 25.9452L27.9744 31.0422C27.5266 31.5293 26.7861 31.5814 26.2769 31.1619L23.4643 28.845C22.9274 28.4027 22.8438 27.6004 23.2778 27.053C23.7117 26.5056 24.4987 26.4205 25.0357 26.8628L26.9449 28.4356L30.8381 24.2022C31.3103 23.6888 32.1012 23.6627 32.6049 24.1441Z" fill="#212121"/>
</svg>
