<svg width="56" height="56" viewBox="0 0 56 56" fill="none" xmlns="http://www.w3.org/2000/svg">
<rect width="56" height="56" rx="28" fill="#EEDCDC"/>
<g clip-path="url(#clip0_1156_5694)">
<path d="M38.431 31.0344C37.2123 29.8147 35.5212 29.298 33.3494 29.8801L25.6051 22.1279L25.7075 21.7408C26.1535 20.0673 25.6716 18.2684 24.4501 17.0469C23.2065 15.8023 21.4384 15.3456 19.7663 15.8049C19.5279 15.8704 19.3423 16.0578 19.2791 16.2969C19.2159 16.536 19.2852 16.7901 19.46 16.965L21.3247 18.8297C21.8698 19.3762 21.8645 20.2514 21.326 20.7913C20.7918 21.327 19.8938 21.3262 19.3617 20.7927L17.4966 18.9275C17.3217 18.7525 17.0669 18.6839 16.8278 18.7474C16.5886 18.8109 16.402 18.997 16.3367 19.2357C15.8841 20.8894 16.3294 22.6684 17.579 23.918C18.7972 25.1371 20.4861 25.6557 22.6592 25.0724L30.4042 32.8246C29.8262 34.9957 30.3247 36.6704 31.5598 37.9055C32.8051 39.1517 34.574 39.605 36.2424 39.1472C36.4809 39.0818 36.6666 38.8943 36.7298 38.6552C36.793 38.4161 36.7238 38.162 36.5489 37.987L34.6846 36.1228C34.1394 35.5763 34.1448 34.7009 34.6833 34.1611C35.2241 33.623 36.1202 33.6315 36.6476 34.1604L38.5128 36.0251C38.6877 36.2 38.9425 36.2686 39.1816 36.2051C39.4207 36.1415 39.6074 35.9556 39.6726 35.7169C40.1252 34.0635 39.6801 32.284 38.431 31.0344Z" fill="#212121"/>
<path d="M23.5833 27.966L16.9664 34.5837C15.8836 35.6665 15.8836 37.4274 16.9664 38.5102C18.0493 39.5931 19.8102 39.5931 20.893 38.5102L27.5097 31.8928L23.5833 27.966ZM20.2409 36.3561C19.9698 36.6273 19.5306 36.6273 19.2595 36.3561C18.9883 36.085 18.9883 35.6458 19.2595 35.3747L23.4695 31.1639C23.7406 30.8927 24.1799 30.8927 24.4509 31.1639C24.7221 31.435 24.7221 31.8742 24.4509 32.1453L20.2409 36.3561Z" fill="#212121"/>
<path d="M39.6422 17.0301L38.4456 15.8335C38.2204 15.6082 37.8709 15.5652 37.5978 15.729L33.9168 17.9373C33.5295 18.1697 33.4638 18.704 33.7831 19.0233L34.0761 19.3162L29.4033 23.9699L31.367 25.9335L36.0397 21.2799L36.4524 21.6927C36.7718 22.0119 37.3061 21.9462 37.5384 21.5589L39.7468 17.8779C39.9105 17.6048 39.8675 17.2553 39.6422 17.0301Z" fill="#212121"/>
</g>
<defs>
<clipPath id="clip0_1156_5694">
<rect width="23.6923" height="23.6923" fill="white" transform="translate(16.1538 15.6301)"/>
</clipPath>
</defs>
</svg>
