<svg width="56" height="56" viewBox="0 0 56 56" fill="none" xmlns="http://www.w3.org/2000/svg">
<rect width="56" height="56" rx="28" fill="#F4E3B1"/>
<path fill-rule="evenodd" clip-rule="evenodd" d="M30.8252 39.4423C30.8252 38.4746 30.0406 37.69 29.0729 37.69H26.9271C26.4624 37.69 26.0167 37.8746 25.6881 38.2033C25.3595 38.5319 25.1748 38.9776 25.1748 39.4423C25.1748 40.4101 25.9594 41.1946 26.9271 41.1946H29.0729C30.0406 41.1946 30.8252 40.4101 30.8252 39.4423ZM17.6838 34.9239C17.9765 34.9462 18.3306 34.9591 18.6863 34.9383C18.8758 35.8992 19.3465 36.7905 20.0492 37.4933C20.9821 38.4261 22.2473 38.9501 23.5665 38.9501H24.2351C24.2056 39.1115 24.1905 39.2761 24.1905 39.4423C24.1905 39.6104 24.2056 39.7749 24.2347 39.9345H23.5665C21.9862 39.9345 20.4706 39.3068 19.3531 38.1893C18.4617 37.2978 17.8818 36.1529 17.6838 34.9239ZM17.1831 33.8764C16.4059 33.7454 15.6827 33.3759 15.1182 32.8114C14.4022 32.0954 14 31.1243 14 30.1118V27.7852C14 26.7727 14.4022 25.8016 15.1182 25.0856C15.8342 24.3696 16.8052 23.9673 17.8178 23.9673H18.0719C18.4781 18.8401 22.7679 14.8056 28 14.8056C33.2321 14.8056 37.5219 18.8401 37.9281 23.9673H38.1822C39.1947 23.9673 40.1658 24.3696 40.8818 25.0856C41.5978 25.8016 42 26.7727 42 27.7852V30.1118C42 31.1243 41.5978 32.0954 40.8818 32.8114C40.1658 33.5274 39.1947 33.9296 38.1822 33.9296H37.0556C36.5883 33.9296 36.2096 33.5508 36.2096 33.0836V24.7652C36.2096 20.2311 32.534 16.5556 28 16.5556C23.466 16.5556 19.7904 20.2311 19.7904 24.7652V33.0836C19.7904 33.4135 19.6016 33.6993 19.3261 33.8388C18.5677 34.102 17.3915 33.9116 17.1831 33.8764Z" fill="#212121" stroke="#212121" stroke-width="1.2"/>
</svg>
