<svg width="56" height="56" viewBox="0 0 56 56" fill="none" xmlns="http://www.w3.org/2000/svg">
<rect width="56" height="56" rx="28" fill="#E1E9EC"/>
<g clip-path="url(#clip0_1156_5895)">
<path d="M28.4167 24.1096C29.3861 24.1096 30.2747 24.4058 31.0018 24.9174C31.8635 24.1904 33.4254 23.948 34.7718 22.9517C38.2455 20.3935 34.7448 14.4423 25.9393 15.9772C19.4495 17.1082 22.277 22.8709 24.539 26.21C25.3468 24.9444 26.801 24.1096 28.4167 24.1096Z" fill="#212121"/>
<path d="M23.7847 28.7137C23.7847 28.606 23.7847 28.4713 23.8117 28.3636C22.7076 28.0135 21.7113 26.721 20.1494 26.0478C16.1909 24.2974 12.798 30.3294 18.5337 37.1692C22.7615 42.2048 26.316 36.9268 28.0664 33.3184C25.6697 33.1299 23.7847 31.1372 23.7847 28.7137Z" fill="#212121"/>
<path d="M32.5363 26.6673C32.8594 27.2867 33.021 27.9868 33.021 28.7139C33.021 30.572 31.9169 32.1877 30.3282 32.9147C30.5436 34.0457 29.9512 35.4998 30.1397 37.1694C30.5974 41.451 37.518 41.3972 40.5879 33.0224C42.8229 26.8828 36.5486 26.3981 32.5363 26.6673Z" fill="#212121"/>
<path d="M31.514 28.7143C31.514 26.9909 30.1137 25.5906 28.3903 25.5906C26.6669 25.5906 25.2666 26.9909 25.2666 28.7143C25.2666 30.4377 26.6669 31.838 28.3903 31.838C30.1137 31.838 31.514 30.4377 31.514 28.7143Z" fill="#212121"/>
</g>
<defs>
<clipPath id="clip0_1156_5895">
<rect width="26.9231" height="26.9231" fill="white" transform="translate(14.8076 14.3896)"/>
</clipPath>
</defs>
</svg>
