<svg width="56" height="56" viewBox="0 0 56 56" fill="none" xmlns="http://www.w3.org/2000/svg">
<rect width="56" height="56" rx="28" fill="#F4E3B1"/>
<g clip-path="url(#clip0_1156_5855)">
<path d="M21.7998 20.5792L19.4799 18.2593C19.1595 17.9389 18.6403 17.9389 18.3199 18.2593C17.9995 18.5797 17.9995 19.0989 18.3199 19.4193L20.6399 21.7392C20.9603 22.0596 21.4794 22.0596 21.7998 21.7392C22.1202 21.4188 22.1202 20.8997 21.7998 20.5792Z" fill="#212121"/>
<path d="M18.3359 27.3001H15C14.5466 27.3001 14.1797 27.667 14.1797 28.1204C14.1797 28.5738 14.5466 28.9407 15 28.9407H18.3359C18.7894 28.9407 19.1562 28.5738 19.1562 28.1204C19.1562 27.667 18.7894 27.3001 18.3359 27.3001Z" fill="#212121"/>
<path d="M41.3594 27.3001H38.0234C37.57 27.3001 37.2031 27.667 37.2031 28.1204C37.2031 28.5738 37.57 28.9407 38.0234 28.9407H41.3594C41.8128 28.9407 42.1797 28.5738 42.1797 28.1204C42.1797 27.667 41.8128 27.3001 41.3594 27.3001Z" fill="#212121"/>
<path d="M38.041 18.2593C37.7206 17.9389 37.2015 17.9389 36.8811 18.2593L34.5611 20.5792C34.2407 20.8997 34.2407 21.4188 34.5611 21.7392C34.8815 22.0596 35.4007 22.0596 35.7211 21.7392L38.041 19.4193C38.3615 19.0989 38.3615 18.5798 38.041 18.2593Z" fill="#212121"/>
<path d="M28.1797 14.1204C27.7263 14.1204 27.3594 14.4873 27.3594 14.9407V18.2767C27.3594 18.7301 27.7263 19.097 28.1797 19.097C28.6331 19.097 29 18.7301 29 18.2767V14.9407C29 14.4873 28.6331 14.1204 28.1797 14.1204Z" fill="#212121"/>
<path d="M26.4083 20.9506C28.6723 20.4092 30.9857 20.9178 32.7739 22.3287C34.5458 23.7396 35.563 25.8561 35.563 28.1202C35.563 30.0889 34.7919 31.9428 33.4138 33.3373C32.6919 34.0428 32.2817 35.131 32.2817 36.1975V36.378C32.2817 36.8373 31.9208 37.1983 31.4614 37.1983H24.8989C24.4395 37.1983 24.0786 36.8373 24.0786 36.378V36.1975C24.0786 35.1146 23.6848 34.0592 23.0121 33.3865C21.1255 31.5326 20.3872 28.8748 21.027 26.2498C21.6669 23.6412 23.7833 21.5577 26.4083 20.9506Z" fill="#212121"/>
<path d="M24.8984 38.8392V39.6595C24.8984 41.0165 26.0024 42.1204 27.3594 42.1204H29C30.357 42.1204 31.4609 41.0165 31.4609 39.6595V38.8392H24.8984Z" fill="#212121"/>
</g>
<defs>
<clipPath id="clip0_1156_5855">
<rect width="28" height="28" fill="white" transform="translate(14.1797 14.1204)"/>
</clipPath>
</defs>
</svg>
