<svg width="56" height="56" viewBox="0 0 56 56" fill="none" xmlns="http://www.w3.org/2000/svg">
<rect width="56" height="56" rx="28" fill="#E1E9EC"/>
<g clip-path="url(#clip0_1156_6045)">
<path d="M35.4448 13.4326H20.5563C19.4077 13.4326 18.4766 14.3637 18.4766 15.5124C18.4766 16.661 19.4077 17.5921 20.5563 17.5921H35.4448C36.5934 17.5921 37.5245 16.661 37.5245 15.5124C37.5245 14.3637 36.5934 13.4326 35.4448 13.4326Z" fill="#212121"/>
<path d="M30.3415 37.2368L28.8208 35.581V21.8408H29.9056L32.3288 24.2639H34.7915V22.6233H33.0084L30.925 20.54V19.2328H25.076V21.8408H27.1802V35.5235L27.23 35.5268L25.6595 37.2368C24.1682 38.8607 22.0485 39.792 19.8438 39.792V41.4326H36.1573V39.792C33.9525 39.792 31.8328 38.8607 30.3415 37.2368Z" fill="#212121"/>
</g>
<defs>
<clipPath id="clip0_1156_6045">
<rect width="28" height="28" fill="white" transform="translate(14 13.4326)"/>
</clipPath>
</defs>
</svg>
