<svg width="56" height="56" viewBox="0 0 56 56" fill="none" xmlns="http://www.w3.org/2000/svg">
<rect width="56" height="56" rx="28" fill="#0C8F61"/>
<g clip-path="url(#clip0_1156_5557)">
<path d="M39.8051 36.076L36.9954 30.0508C35.444 32.3098 33.0217 33.9183 30.2178 34.4061L32.5698 39.4497C32.8705 40.095 33.8011 40.052 34.0433 39.3855L35.2488 36.074L35.4972 35.9581L38.8088 37.1636C39.4733 37.4075 40.1054 36.7188 39.8051 36.076Z" fill="#FAF9F7"/>
<path d="M28.4378 15.4103C23.5959 15.4103 19.6562 19.3497 19.6562 24.1918C19.6562 29.034 23.5959 32.9733 28.4378 32.9733C33.2797 32.9733 37.2193 29.034 37.2193 24.1918C37.2193 19.3497 33.2797 15.4103 28.4378 15.4103ZM32.7106 23.5466L31.1535 25.0645L31.5215 27.2085C31.634 27.863 30.9443 28.3548 30.3629 28.0499L28.4378 27.038L26.5127 28.0499C25.928 28.3569 25.2423 27.8593 25.3542 27.2084L25.7222 25.0645L24.165 23.5465C23.6918 23.0851 23.9544 22.2798 24.6074 22.1849L26.7596 21.8722L27.7222 19.9222C28.0135 19.3299 28.862 19.3294 29.1536 19.9222L30.1162 21.8722L32.2684 22.1849C32.9213 22.2797 33.1839 23.0851 32.7106 23.5466Z" fill="#FAF9F7"/>
<path d="M19.8798 30.0508L17.0702 36.076C16.7685 36.7218 17.4062 37.4067 18.0665 37.1635L21.378 35.958L21.6264 36.0738L22.832 39.3854C23.0737 40.0505 24.0041 40.0963 24.3055 39.4496L26.6575 34.406C23.8535 33.9183 21.4313 32.3098 19.8798 30.0508Z" fill="#FAF9F7"/>
</g>
<defs>
<clipPath id="clip0_1156_5557">
<rect width="24.5" height="24.5" fill="white" transform="translate(16.1875 15.4103)"/>
</clipPath>
</defs>
</svg>
