<svg width="56" height="56" viewBox="0 0 56 56" fill="none" xmlns="http://www.w3.org/2000/svg">
<rect width="56" height="56" rx="28" fill="#0C8F61"/>
<path d="M30.7282 30.0213L26.9531 34.7868L30.7282 39.5522V37.8075H34.6099C35.1927 37.8075 35.7298 37.4952 36.0155 36.9924L39.0134 31.7698H30.7282V30.0213Z" fill="#FAF9F7"/>
<path d="M16.5579 24.5663L18.0854 25.4119L16.2036 28.806C15.9217 29.3165 15.9331 29.9336 16.2341 30.4288L19.3463 35.5828L23.3613 28.3375L24.8889 29.1831L22.5575 23.572L16.5579 24.5663Z" fill="#FAF9F7"/>
<path d="M28.8012 24.9206L34.8161 25.8082L37.056 20.1551L35.5437 21.0275L33.5971 17.6676C33.3038 17.161 32.7667 16.8563 32.1877 16.8563L26.1689 16.8715L30.3097 24.0444L28.8012 24.9206Z" fill="#FAF9F7"/>
<path d="M39.7222 28.5013L38.2671 25.8767L33.6807 28.4175L35.1092 31.0002H39.4975L39.6461 30.7679C40.0879 30.086 40.1184 29.2137 39.7222 28.5013Z" fill="#FAF9F7"/>
<path d="M25.2665 16.8297L24.9923 16.8183C24.1771 16.7802 23.4114 17.1916 22.9924 17.8887L21.4458 20.46L25.937 23.1608L27.4607 20.6314L25.2665 16.8297Z" fill="#FAF9F7"/>
<path d="M19.7803 36.3789L19.9098 36.6227C20.2983 37.3389 21.045 37.7846 21.8602 37.7846H24.8581V32.5429L21.9059 32.5391L19.7803 36.3789Z" fill="#FAF9F7"/>
</svg>
