<svg width="56" height="56" viewBox="0 0 56 56" fill="none" xmlns="http://www.w3.org/2000/svg">
<rect width="56" height="56" rx="28" fill="#212121"/>
<path d="M36.5972 34.3325C35.2945 33.5326 32.9585 31.9528 31.8183 30.288C32.5991 30.46 33.727 30.5615 34.8299 30.1328C35.133 30.0155 35.3395 29.7397 35.3687 29.4139C35.3978 29.085 35.2422 28.7747 34.9619 28.6031C34.041 28.0412 32.3861 26.9296 31.5312 25.7371C32.1787 25.8017 32.7538 25.773 33.2406 25.6534C33.566 25.5737 33.8103 25.3198 33.8776 24.9909C33.945 24.6628 33.8203 24.3343 33.5532 24.1337C32.7838 23.5554 31.4206 22.4588 30.8205 21.5283C31.2077 21.5074 31.5326 21.4241 31.786 21.2813C32.0012 21.1598 32.1509 20.9496 32.1973 20.7048C32.2446 20.4541 32.18 20.197 32.019 19.9991C31.5348 19.4058 29.8968 17.3564 29.132 15.8918C28.9836 15.6074 28.6934 15.4313 28.3739 15.4313C28.0545 15.4313 27.7647 15.6083 27.6164 15.8923C26.852 17.3569 25.214 19.4062 24.7303 19.9995C24.5688 20.197 24.5037 20.4541 24.551 20.7052C24.5974 20.9505 24.7471 21.1607 24.9633 21.2822C25.2213 21.4278 25.5543 21.511 25.9351 21.5188C25.3382 22.4515 23.9677 23.554 23.196 24.1341C22.9285 24.3343 22.8038 24.6628 22.8712 24.9909C22.9381 25.3198 23.1819 25.5737 23.5077 25.6538C23.9955 25.773 24.5701 25.8012 25.2176 25.7375C24.3636 26.9287 22.7074 28.0412 21.7869 28.6036C21.5066 28.7747 21.3506 29.085 21.3801 29.4139C21.4088 29.7402 21.6154 30.0155 21.9184 30.1333C23.0204 30.561 24.1493 30.4604 24.9305 30.2885C23.7907 31.9524 21.4539 33.5326 20.1512 34.3329C19.86 34.5118 19.7026 34.8476 19.7508 35.187C19.799 35.5287 20.0352 35.7976 20.3669 35.889C22.8389 36.5706 24.9592 36.284 26.4261 35.8476V39.2879C26.4261 39.5149 26.6104 39.6992 26.8374 39.6992H29.9146C30.1416 39.6992 30.3259 39.5149 30.3259 39.2879V35.8513C31.1649 36.0983 32.2091 36.2967 33.4099 36.2967C34.3208 36.2967 35.3213 36.1825 36.3851 35.8895C36.7168 35.798 36.9525 35.5291 37.0012 35.187C37.049 34.8471 36.8915 34.5118 36.6003 34.3329L36.5972 34.3325Z" fill="#FAF9F7"/>
</svg>
