<svg width="56" height="56" viewBox="0 0 56 56" fill="none" xmlns="http://www.w3.org/2000/svg">
<rect width="56" height="56" rx="28" fill="#0C8F61"/>
<g clip-path="url(#clip0_1156_5936)">
<path d="M33.8796 28.2652C33.8796 27.3278 33.3605 26.518 32.6011 26.0846C33.3269 25.8998 33.8796 25.2681 33.8796 24.4852C33.8796 24.2181 33.8124 23.9678 33.6965 23.7511C33.2715 22.2743 32.3155 21.0446 31.0438 20.2852H24.9555C23.682 21.0446 22.7278 22.2743 22.3011 23.7511C22.1868 23.9695 22.1196 24.2198 22.1196 24.4852C22.1196 25.2664 22.6723 25.8981 23.3981 26.0829C22.6387 26.518 22.1196 27.3278 22.1196 28.2652C22.1196 29.2043 22.6387 30.0124 23.3998 30.4475C22.6707 30.6307 22.1196 31.2607 22.1196 32.0452V40.4452C22.1196 41.3726 22.8723 42.1252 23.7996 42.1252H32.1996C33.127 42.1252 33.8796 41.3726 33.8796 40.4452V32.0452C33.8796 31.259 33.3286 30.629 32.5995 30.4459C33.3605 30.0124 33.8796 29.2043 33.8796 28.2652Z" fill="#FAF9F7"/>
<path d="M30.5196 15.2452H25.4796C25.016 15.2452 24.6396 15.6216 24.6396 16.0852V17.7652C24.6396 18.2289 25.016 18.6052 25.4796 18.6052H30.5196C30.9833 18.6052 31.3596 18.2289 31.3596 17.7652V16.0852C31.3596 15.6216 30.9833 15.2452 30.5196 15.2452Z" fill="#FAF9F7"/>
</g>
<defs>
<clipPath id="clip0_1156_5936">
<rect width="26.88" height="26.88" fill="white" transform="translate(14.5601 15.2452)"/>
</clipPath>
</defs>
</svg>
