<svg width="56" height="56" viewBox="0 0 56 56" fill="none" xmlns="http://www.w3.org/2000/svg">
<rect width="56" height="56" rx="28" fill="#212121"/>
<g clip-path="url(#clip0_1156_6023)">
<path d="M29.3691 38.433C29.5542 38.5737 29.7837 38.6403 30.0132 38.6403C30.1835 38.6403 30.3612 38.6033 30.5167 38.5219C30.8869 38.3293 31.1238 37.9444 31.1238 37.5297V17.4209C31.1238 17.0063 30.8869 16.6213 30.5167 16.4287C30.1539 16.2436 29.7023 16.2733 29.3691 16.5176L21.5506 22.0927H17.634C17.0195 22.0927 16.5234 22.5962 16.5234 23.2033V31.7473C16.5234 32.3544 17.0195 32.8579 17.634 32.8579H21.5506L29.3691 38.433Z" fill="#FAF9F7"/>
<path d="M39.1502 24.5561C38.7164 24.1223 38.0136 24.1223 37.5798 24.5561L36.2309 25.9048L34.8821 24.5561C34.4483 24.1223 33.7455 24.1223 33.3117 24.5561C32.8779 24.99 32.8779 25.6931 33.3117 26.1266L34.6605 27.4752L33.3117 28.8238C32.8779 29.2576 32.8779 29.9604 33.3117 30.3943C33.5286 30.6112 33.8128 30.7196 34.0969 30.7196C34.3811 30.7196 34.6652 30.6112 34.8821 30.3943L36.2309 29.0456L37.5798 30.3943C37.7967 30.6112 38.0808 30.7196 38.365 30.7196C38.6491 30.7196 38.9333 30.6112 39.1502 30.3943C39.584 29.9604 39.584 29.2576 39.1502 28.8238L37.8014 27.4752L39.1502 26.1266C39.584 25.6931 39.584 24.99 39.1502 24.5561Z" fill="#FAF9F7"/>
</g>
<defs>
<clipPath id="clip0_1156_6023">
<rect width="23.6923" height="23.6923" fill="white" transform="translate(16.1543 15.6301)"/>
</clipPath>
</defs>
</svg>
