<svg width="56" height="56" viewBox="0 0 56 56" fill="none" xmlns="http://www.w3.org/2000/svg">
<rect width="56" height="56" rx="28" fill="#E1E9EC"/>
<g clip-path="url(#clip0_1156_5999)">
<path d="M16.422 23.8769C16.9008 23.8769 17.2888 23.4888 17.2888 23.0101V19.3143L22.8716 24.896C23.0409 25.0652 23.2627 25.1498 23.4845 25.1498C23.7064 25.1498 23.9283 25.0652 24.0975 24.8958C24.436 24.5573 24.436 24.0085 24.0974 23.6701L18.5143 18.0883H22.211C22.6897 18.0883 23.0778 17.7002 23.0778 17.2215C23.0778 16.7428 22.6898 16.3547 22.211 16.3547H16.422C15.9432 16.3547 15.5552 16.7428 15.5552 17.2215V23.0102C15.5552 23.4888 15.9432 23.8769 16.422 23.8769Z" fill="#212121" stroke="#212121" stroke-width="0.585621"/>
<path d="M39.5773 33.7207C39.0985 33.7207 38.7105 34.1088 38.7105 34.5875V38.2835L32.9559 32.5288C32.6172 32.1903 32.0685 32.1903 31.73 32.5288C31.3914 32.8673 31.3914 33.4162 31.73 33.7546L37.4845 39.5091H33.7888C33.31 39.5091 32.922 39.8972 32.922 40.3759C32.922 40.8546 33.31 41.2427 33.7888 41.2427H39.5774C40.0563 41.2427 40.4442 40.8546 40.4442 40.3759V34.5875C40.4441 34.1088 40.056 33.7207 39.5773 33.7207Z" fill="#212121" stroke="#212121" stroke-width="0.585621"/>
<path d="M23.0429 32.5288L17.2888 38.2834V34.5875C17.2888 34.1088 16.9008 33.7207 16.422 33.7207C15.9432 33.7207 15.5552 34.1088 15.5552 34.5875V40.3762C15.5552 40.8549 15.9432 41.243 16.422 41.243H22.2104C22.6891 41.243 23.0772 40.8549 23.0772 40.3762C23.0772 39.8975 22.6892 39.5094 22.2104 39.5094H18.5146L24.2688 33.7546C24.6073 33.4161 24.6073 32.8672 24.2687 32.5287C23.9304 32.1903 23.3815 32.1903 23.0429 32.5288Z" fill="#212121" stroke="#212121" stroke-width="0.585621"/>
<path d="M39.5775 16.3548H33.7889C33.31 16.3548 32.922 16.7429 32.922 17.2216C32.922 17.7003 33.31 18.0884 33.7889 18.0884H37.4848L31.9028 23.6708C31.5643 24.0093 31.5643 24.5581 31.9029 24.8967C32.0721 25.0659 32.294 25.1505 32.5158 25.1505C32.7376 25.1505 32.9595 25.0657 33.1288 24.8965L38.7108 19.3142V23.0102C38.7108 23.489 39.0988 23.8771 39.5776 23.8771C40.0564 23.8771 40.4444 23.489 40.4444 23.0102V17.2216C40.4443 16.7428 40.0562 16.3548 39.5775 16.3548Z" fill="#212121" stroke="#212121" stroke-width="0.585621"/>
</g>
<defs>
<clipPath id="clip0_1156_5999">
<rect width="24.8889" height="24.8889" fill="white" transform="translate(15.5552 16.3546)"/>
</clipPath>
</defs>
</svg>
