<svg width="56" height="56" viewBox="0 0 56 56" fill="none" xmlns="http://www.w3.org/2000/svg">
<rect width="56" height="56" rx="28" fill="#212121"/>
<g clip-path="url(#clip0_1156_5539)">
<path d="M40.1323 19.6104C37.1673 19.6104 32.9785 19.8585 30.8379 21.998C29.9111 22.9247 29.4483 24.4356 29.5684 26.1457C29.584 26.3715 29.7342 26.564 29.95 26.6352C30.1647 26.7053 30.4006 26.6396 30.5475 26.4672C31.738 25.0665 33.2177 23.9439 34.9489 23.1306C35.0957 23.0605 35.2693 23.0549 35.4272 23.1106C35.5663 23.1606 35.6753 23.2552 35.7321 23.3765C35.85 23.6257 35.8122 23.9539 35.4206 24.1386C35.3983 24.1497 35.3783 24.1642 35.3561 24.1742C35.3483 24.1775 35.3394 24.1764 35.3327 24.1798C31.0671 26.1847 28.9699 29.6826 28.0175 33.2795C27.3232 28.7758 25.8569 26.1245 24.4717 24.4969C23.4693 23.1974 22.4835 22.5087 21.9139 22.1193C21.8082 22.047 21.489 21.8289 21.3565 21.6965C21.1396 21.4796 21.1396 21.1269 21.3565 20.9099C21.5735 20.6941 21.9273 20.6941 22.1687 20.9344C22.2277 20.9867 22.3222 21.0534 22.4424 21.1335L22.5414 21.2003C23.3469 21.7521 24.8467 22.7768 26.1773 24.983C26.2964 25.18 26.5267 25.2857 26.7503 25.2434C26.9773 25.2033 27.1553 25.0287 27.1998 24.8028C27.4902 23.3197 27.36 21.119 26.0372 19.7962C23.8966 17.6578 19.7078 17.4097 16.7439 17.4097C16.4367 17.4097 16.1875 17.6589 16.1875 17.966C16.1875 20.931 16.4356 25.1198 18.5751 27.2605C19.4673 28.1527 20.8436 28.5532 22.2109 28.5532C23.3268 28.5532 24.4205 28.274 25.2583 27.79C26.4009 30.1575 27.3132 33.6944 27.3132 39.1049C27.3132 39.412 27.5625 39.6612 27.8695 39.6612C28.1766 39.6612 28.4258 39.412 28.4258 39.1049C28.4258 36.0865 28.9432 32.4639 30.8668 29.4822C31.6378 30.2355 32.9651 30.7128 34.4359 30.7572C34.5094 30.7595 34.5817 30.7606 34.654 30.7606C36.1482 30.7606 37.4688 30.2922 38.2999 29.46C40.4405 27.3194 40.6874 23.1305 40.6874 20.1655C40.6886 19.8585 40.4405 19.6104 40.1323 19.6104Z" fill="#FAF9F7" stroke="#FAF9F7" stroke-width="0.41216"/>
</g>
<defs>
<clipPath id="clip0_1156_5539">
<rect width="24.5" height="24.5" fill="white" transform="translate(16.1875 16.2853)"/>
</clipPath>
</defs>
</svg>
