<svg width="56" height="56" viewBox="0 0 56 56" fill="none" xmlns="http://www.w3.org/2000/svg">
<rect width="56" height="56" rx="28" fill="#EEDCDC"/>
<path d="M19.4893 28.3133V31.167C19.4893 34.9206 21.88 38.2374 25.4431 39.4196C25.7452 39.5214 25.9488 39.8038 25.9488 40.1224V41.5213C25.9488 42.0205 26.3527 42.4244 26.8519 42.4244H29.5382C30.0373 42.4244 30.4412 42.0205 30.4412 41.5213V40.1224C30.4412 39.8038 30.6448 39.5214 30.947 39.4196C32.2211 38.9993 33.3968 38.2702 34.3491 37.3179C35.9944 35.6726 36.9008 33.4888 36.9008 31.167V28.3133H19.4893Z" fill="#212121"/>
<path d="M36.8976 24.8721C36.8976 24.6226 36.7958 24.3992 36.6349 24.235C36.4707 24.0708 36.2441 23.9691 35.9945 23.9691H20.3958C19.8966 23.9691 19.4927 24.3763 19.4927 24.8721V26.8359H36.8976V24.8721Z" fill="#212121"/>
<path d="M24.6296 15.219C24.6296 14.3293 23.9084 13.6081 23.0187 13.6081C22.129 13.6081 21.4077 14.3293 21.4077 15.219V23.2308H24.6296V15.219Z" fill="#212121"/>
<path d="M34.9826 15.219C34.9826 14.3293 34.2614 13.6081 33.3717 13.6081C32.482 13.6081 31.7607 14.3293 31.7607 15.219V23.2308H34.9826V15.219Z" fill="#212121"/>
</svg>
