<svg width="56" height="56" viewBox="0 0 56 56" fill="none" xmlns="http://www.w3.org/2000/svg">
<rect width="56" height="56" rx="28" fill="#0C8F61"/>
<g clip-path="url(#clip0_1156_5654)">
<path d="M29.3696 38.4339C29.5547 38.5746 29.7842 38.6412 30.0137 38.6412C30.184 38.6412 30.3617 38.6042 30.5172 38.5228C30.8874 38.3303 31.1243 37.9453 31.1243 37.5306V17.4218C31.1243 17.0072 30.8874 16.6222 30.5172 16.4297C30.1544 16.2446 29.7028 16.2742 29.3696 16.5185L21.5511 22.0936H17.6345C17.02 22.0936 16.5239 22.5971 16.5239 23.2042V31.7482C16.5239 32.3553 17.02 32.8588 17.6345 32.8588H21.5511L29.3696 38.4339Z" fill="#FAF9F7"/>
<path d="M39.1507 24.5572C38.7168 24.1234 38.0141 24.1234 37.5802 24.5572L36.2314 25.9059L34.8826 24.5572C34.4488 24.1234 33.746 24.1234 33.3122 24.5572C32.8784 24.991 32.8784 25.6941 33.3122 26.1276L34.661 27.4762L33.3122 28.8249C32.8784 29.2587 32.8784 29.9615 33.3122 30.3953C33.5291 30.6122 33.8132 30.7206 34.0974 30.7206C34.3815 30.7206 34.6657 30.6122 34.8826 30.3953L36.2314 29.0466L37.5802 30.3953C37.7972 30.6122 38.0813 30.7206 38.3655 30.7206C38.6496 30.7206 38.9338 30.6122 39.1507 30.3953C39.5845 29.9615 39.5845 29.2587 39.1507 28.8249L37.8019 27.4762L39.1507 26.1276C39.5845 25.6941 39.5845 24.991 39.1507 24.5572Z" fill="#FAF9F7"/>
</g>
<defs>
<clipPath id="clip0_1156_5654">
<rect width="23.6923" height="23.6923" fill="white" transform="translate(16.1538 15.6301)"/>
</clipPath>
</defs>
</svg>
