<svg width="56" height="56" viewBox="0 0 56 56" fill="none" xmlns="http://www.w3.org/2000/svg">
<rect width="56" height="56" rx="28" fill="#E1E9EC"/>
<g clip-path="url(#clip0_1156_5578)">
<path d="M38.892 38.1644C38.9586 38.3956 38.892 38.6488 38.7233 38.8177C38.5988 38.942 38.4254 39.0131 38.2522 39.0131C38.1901 39.0131 38.1278 39.0043 38.07 38.9864L31.8583 37.2136L37.1191 31.9527L38.892 38.1644Z" fill="#212121"/>
<path d="M38.2519 39.0353C38.4342 39.0353 38.6074 38.9642 38.7362 38.8354C38.9139 38.6577 38.9806 38.3999 38.9096 38.16L37.1234 31.9126L31.809 37.2269L38.0653 39.0086C38.1275 39.0265 38.1898 39.0353 38.2519 39.0353ZM37.1055 31.9926L38.8695 38.1689C38.9318 38.3956 38.8695 38.6354 38.7051 38.7998C38.5852 38.9197 38.4208 38.9864 38.2519 38.9864C38.1941 38.9864 38.132 38.9775 38.0742 38.9598L31.8979 37.1959L37.1055 31.9926Z" fill="#212121"/>
<path d="M16.7949 19.7155L19.6165 16.894C19.9985 16.5163 20.4961 16.3075 21.0338 16.3075C21.567 16.3075 22.0692 16.5163 22.4468 16.8896L23.8599 18.3025L18.2123 23.9501L16.7993 22.5371C16.4216 22.1594 16.2173 21.6572 16.2173 21.124C16.2128 20.5908 16.4216 20.0932 16.7949 19.7155Z" fill="#212121"/>
<path d="M18.2081 23.9811L23.8867 18.3025L22.4605 16.8763C22.0783 16.4941 21.5718 16.2853 21.0341 16.2853C20.4921 16.2853 19.9854 16.4941 19.6077 16.8763L16.7862 19.6978C16.4042 20.0798 16.1954 20.5865 16.1954 21.124C16.1954 21.6663 16.4042 22.1727 16.7862 22.5504L18.2081 23.9811ZM23.8246 18.3025L18.2081 23.919L16.8129 22.5237C16.4398 22.1505 16.2353 21.6572 16.2353 21.1285C16.2353 20.5998 16.4398 20.1066 16.8129 19.7334L19.6345 16.9073C20.0076 16.5342 20.5054 16.3297 21.0341 16.3297C21.5628 16.3297 22.0561 16.5342 22.4293 16.9073L23.8246 18.3025Z" fill="#212121"/>
<path d="M36.3691 30.8157L24.7977 19.244L19.1485 24.8932L30.72 36.4648L36.3691 30.8157Z" fill="#212121"/>
<path d="M30.7203 36.498L36.4033 30.8151L24.7973 19.2134L19.1187 24.892L30.7203 36.498ZM36.3367 30.8151L30.7203 36.4314L19.181 24.892L24.7973 19.2757L36.3367 30.8151Z" fill="#212121"/>
</g>
<defs>
<clipPath id="clip0_1156_5578">
<rect width="22.75" height="22.75" fill="white" transform="matrix(-1 0 0 1 38.9375 16.2853)"/>
</clipPath>
</defs>
</svg>
