<svg width="56" height="56" viewBox="0 0 56 56" fill="none" xmlns="http://www.w3.org/2000/svg">
<rect width="56" height="56" rx="28" fill="#212121"/>
<path d="M17 17.5C17 16.6716 17.6716 16 18.5 16H31.5C32.3284 16 33 16.6716 33 17.5V36.5C33 37.3284 32.3284 38 31.5 38H18.5C17.6716 38 17 37.3284 17 36.5V17.5Z" fill="#FAF9F7"/>
<path d="M31 16L36 21V17.5C36 16.6716 35.3284 16 34.5 16H31V16Z" fill="#FAF9F7"/>
<path d="M21 22H29V23.5H21V22ZM21 26H27V27.5H21V26ZM21 30H25V31.5H21V30Z" fill="#212121"/>
<path d="M32.5 28.5L39.5 35.5L38 37L31 30L32.5 28.5Z" fill="#FAF9F7"/>
<path d="M39.8 33.2L41.5 34.9C42.1 35.5 42.1 36.5 41.5 37.1L40.9 37.7C40.3 38.3 39.3 38.3 38.7 37.7L37 36L39.8 33.2Z" fill="#FAF9F7"/>
</svg>
