<svg width="56" height="56" viewBox="0 0 56 56" fill="none" xmlns="http://www.w3.org/2000/svg">
<rect width="56" height="56" rx="28" fill="#0C8F61"/>
<circle cx="28" cy="28" r="6" fill="#FAF9F7"/>
<path d="M28 14.5C28.5523 14.5 29 14.9477 29 15.5V18.5C29 19.0523 28.5523 19.5 28 19.5C27.4477 19.5 27 19.0523 27 18.5V15.5C27 14.9477 27.4477 14.5 28 14.5Z" fill="#FAF9F7"/>
<path d="M28 36.5C28.5523 36.5 29 36.9477 29 37.5V40.5C29 41.0523 28.5523 41.5 28 41.5C27.4477 41.5 27 41.0523 27 40.5V37.5C27 36.9477 27.4477 36.5 28 36.5Z" fill="#FAF9F7"/>
<path d="M41.5 28C41.5 28.5523 41.0523 29 40.5 29H37.5C36.9477 29 36.5 28.5523 36.5 28C36.5 27.4477 36.9477 27 37.5 27H40.5C41.0523 27 41.5 27.4477 41.5 28Z" fill="#FAF9F7"/>
<path d="M19.5 28C19.5 28.5523 19.0523 29 18.5 29H15.5C14.9477 29 14.5 28.5523 14.5 28C14.5 27.4477 14.9477 27 15.5 27H18.5C19.0523 27 19.5 27.4477 19.5 28Z" fill="#FAF9F7"/>
<path d="M37.1924 18.8076C37.5829 19.1981 37.5829 19.8313 37.1924 20.2218L35.0711 22.3431C34.6806 22.7337 34.0474 22.7337 33.6569 22.3431C33.2663 21.9526 33.2663 21.3194 33.6569 20.9289L35.7782 18.8076C36.1687 18.4171 36.8019 18.4171 37.1924 18.8076Z" fill="#FAF9F7"/>
<path d="M22.3431 33.6569C22.7337 34.0474 22.7337 34.6806 22.3431 35.0711L20.2218 37.1924C19.8313 37.5829 19.1981 37.5829 18.8076 37.1924C18.4171 36.8019 18.4171 36.1687 18.8076 35.7782L20.9289 33.6569C21.3194 33.2663 21.9526 33.2663 22.3431 33.6569Z" fill="#FAF9F7"/>
<path d="M37.1924 37.1924C36.8019 37.5829 36.1687 37.5829 35.7782 37.1924L33.6569 35.0711C33.2663 34.6806 33.2663 34.0474 33.6569 33.6569C34.0474 33.2663 34.6806 33.2663 35.0711 33.6569L37.1924 35.7782C37.5829 36.1687 37.5829 36.8019 37.1924 37.1924Z" fill="#FAF9F7"/>
<path d="M22.3431 22.3431C21.9526 22.7337 21.3194 22.7337 20.9289 22.3431L18.8076 20.2218C18.4171 19.8313 18.4171 19.1981 18.8076 18.8076C19.1981 18.4171 19.8313 18.4171 20.2218 18.8076L22.3431 20.9289C22.7337 21.3194 22.7337 21.9526 22.3431 22.3431Z" fill="#FAF9F7"/>
</svg>
